<svg width="171" height="151" viewBox="0 0 171 151" fill="none" xmlns="http://www.w3.org/2000/svg">
<path fill-rule="evenodd" clip-rule="evenodd" d="M0 4.26904L2.46436 0H16.3213L0 28.27V4.26904ZM0 53.6333L30.9644 0H44.8237L1e-05 77.6367L0 53.6333ZM0 103.862L59.9644 0H73.8228L1e-05 127.864L0 103.862ZM1.78564 151L88.9648 0H102.822L15.6411 151H1.78564ZM30.7861 151L117.965 0H131.822L44.6416 151H30.7861ZM59.2856 151L146.465 0H160.322L73.1411 151H59.2856ZM88.2861 151L171 7.7334V31.7339L102.142 151H88.2861ZM117.786 151L171 58.8291V82.8286L131.641 151H117.786ZM146.786 151L171 109.059V133.058L160.642 151L146.786 151Z" fill="#F5F5F5"/>
</svg>
